<svg width="528" height="377" viewBox="0 0 528 377" fill="none" xmlns="http://www.w3.org/2000/svg">
<g clip-path="url(#clip0)" filter="url(#filter0_d)">
<path opacity="0.1" d="M176.878 368.793C202.202 368.793 222.731 365.489 222.731 361.415C222.731 357.34 202.202 354.037 176.878 354.037C151.555 354.037 131.026 357.34 131.026 361.415C131.026 365.489 151.555 368.793 176.878 368.793Z" fill="#2D9CDB"/>
<path opacity="0.1" d="M426.126 369C457.726 369 483.343 365.697 483.343 361.622C483.343 357.548 457.726 354.245 426.126 354.245C394.526 354.245 368.909 357.548 368.909 361.622C368.909 365.697 394.526 369 426.126 369Z" fill="#2D9CDB"/>
<path opacity="0.1" d="M10.5127 159.435H58.271V224.646H14.0091C13.8914 225.316 13.7785 225.99 13.6561 226.664H58.271V279.256C58.191 279.232 58.1204 279.204 58.0451 279.176C56.784 278.676 55.5323 278.148 54.2805 277.582L53.4806 277.219C52.2257 276.625 50.9709 275.997 49.716 275.333C49.2784 275.102 48.8407 274.862 48.4078 274.617C41.4414 270.707 35.1128 265.754 29.6414 259.927C29.4814 259.772 29.3309 259.607 29.1709 259.456C28.4085 258.626 27.6603 257.787 26.9356 256.929L26.1357 255.986C25.2792 254.935 24.451 253.855 23.6463 252.762C23.5287 252.602 23.4158 252.441 23.2934 252.29C20.0208 247.745 17.3035 242.822 15.1996 237.629C15.1337 237.474 15.0772 237.304 15.0161 237.158C14.3698 235.492 13.7973 233.811 13.2985 232.114C13.082 231.402 12.875 230.699 12.6962 229.959C12.6303 229.742 12.5738 229.53 12.522 229.318C9.8492 218.867 9.53392 208.01 9.53392 197.228C9.53392 195.97 9.53392 194.706 9.53392 193.457C9.53392 189.096 9.58568 184.707 9.66097 180.323C9.66097 179.187 9.70803 178.056 9.73156 176.915C9.79744 174.02 9.89155 171.126 10.0139 168.231C10.0421 167.425 10.0798 166.624 10.1221 165.822C10.1221 165.36 10.1457 164.898 10.1927 164.436C10.3057 162.758 10.3998 161.094 10.5127 159.435Z" fill="#2D9CDB"/>
<path opacity="0.1" d="M58.271 86.8264H32.0743C36.3327 80.1491 40.9855 73.7326 46.0079 67.6113C49.8995 62.8216 54.0076 58.1546 58.271 53.6572V86.8264Z" fill="#2D9CDB"/>
<path opacity="0.1" d="M58.271 88.844V157.417H10.6633C10.6633 157.219 10.6962 157.016 10.7103 156.818C10.7527 156.276 10.795 155.734 10.8421 155.196C10.8939 154.565 10.9503 153.928 11.0115 153.311C11.0727 152.693 11.1386 151.939 11.2091 151.255C11.2797 150.572 11.3456 149.879 11.4256 149.195C11.5056 148.512 11.5762 147.828 11.6609 147.149C11.7456 146.47 11.8209 145.782 11.9103 145.103C11.9809 144.538 12.0562 143.977 12.1315 143.411C12.2397 142.614 12.3526 141.813 12.475 141.021C12.475 140.903 12.5079 140.78 12.5267 140.667C13.3856 134.87 14.5559 129.122 16.0325 123.451C17.5781 117.502 19.5519 111.672 21.9382 106.008C24.4744 100.083 27.4439 94.3543 30.8225 88.8676L58.271 88.844Z" fill="#2D9CDB"/>
<path opacity="0.1" d="M69.6729 159.43V224.646H171.679V159.43H69.6729ZM69.6729 226.659V282.664C70.2564 282.787 70.8352 282.904 71.4093 283.003C72.1905 283.154 72.9669 283.291 73.7622 283.409C73.9128 283.432 74.068 283.456 74.2327 283.47C74.5433 283.522 74.8633 283.564 75.1739 283.607C75.9597 283.715 76.7409 283.805 77.5267 283.876C77.8985 283.913 78.275 283.946 78.6514 283.975L79.5596 284.045C80.0537 284.083 80.5431 284.111 81.0278 284.125C81.329 284.125 81.6301 284.154 81.9407 284.163C82.176 284.163 82.4113 284.163 82.656 284.163C82.9007 284.163 83.2489 284.163 83.5453 284.163C83.95 284.163 84.3547 284.163 84.7547 284.163H85.2959C85.7006 284.163 86.1053 284.163 86.5052 284.125H86.5335C86.8111 284.125 87.0935 284.125 87.3758 284.088C87.4542 284.092 87.5327 284.092 87.6111 284.088C87.8464 284.088 88.0817 284.088 88.3075 284.055H88.4722L90.0486 283.932C90.5663 283.885 91.0886 283.824 91.6156 283.767L92.6885 283.64C97.0535 283.027 101.37 282.107 105.606 280.887C115.121 278.228 124.429 274.508 133.939 271.784C146.235 268.272 159.82 266.546 171.702 270.841V226.659H69.6729ZM171.679 86.8264V0.00477986C160.511 -0.116434 149.373 1.19214 138.536 3.89872C112.707 10.3996 89.531 24.4998 69.6729 42.5081V86.8217H74.7927V88.8346H69.6729V157.417H171.679V88.8393H95.8131V86.8264H171.679ZM302.7 57.4993C296.309 57.273 289.957 55.2459 284.211 52.1157C273.223 46.1286 264.447 36.884 254.64 29.082C234.265 12.8321 208.995 3.02659 183.071 0.594056V86.8264H328.689L329.052 86.4445L302.7 57.4993ZM315.965 55.1422L330.031 70.6048V51.088C325.32 51.6725 321.193 53.0632 315.984 55.1233L315.965 55.1422ZM330.031 296.571V226.659H300.06C299.98 226.362 299.9 226.061 299.806 225.759C299.895 226.061 299.97 226.362 300.055 226.659H183.09V277.219C184.201 278.044 185.297 278.912 186.384 279.793C187.556 280.736 188.713 281.731 189.876 282.706L191.047 283.678C191.607 284.149 192.172 284.62 192.741 285.064C193.871 285.981 195.011 286.886 196.162 287.779C196.732 288.25 197.315 288.675 197.894 289.118C207.083 296.156 216.776 302.507 226.895 308.121C229.164 309.378 231.452 310.605 233.761 311.803C235.3 312.59 236.848 313.372 238.401 314.131C240.735 315.272 243.088 316.372 245.459 317.431C267.325 327.264 290.447 334.012 314.163 337.481C319.43 338.26 324.718 338.873 330.026 339.319V296.566H330.496L330.031 296.571ZM183.09 88.8393V157.417H330.049V88.8393H183.09ZM183.09 159.43V224.646H330.049V159.43H183.09ZM341.456 51.0031V72.7733L359.408 53.0396C353.46 52.0779 347.476 51.3912 341.456 50.9795V51.0031ZM341.456 159.453V224.646H484.392V159.43L341.456 159.453ZM483.87 301.747L484.373 226.659H341.456V340.069C350.663 340.456 359.884 340.346 369.079 339.739H369.239C373.631 339.462 378.002 339.06 382.353 338.532H382.452C405.666 335.826 428.364 329.758 449.838 320.519L483.87 301.747ZM511.953 170.169C511.417 168.901 510.857 167.642 510.288 166.398C509.224 164.04 508.099 161.749 506.942 159.458H495.789V224.646H523.986C523.972 206.185 519.308 187.329 511.967 170.145L511.953 170.169ZM495.789 226.683V291.267C503.732 283.64 510.443 274.914 515.276 264.939C521.087 252.927 523.746 239.92 523.962 226.673L495.789 226.683ZM495.789 140.451V157.422H505.897C502.839 151.579 499.47 145.906 495.803 140.427L495.789 140.451ZM398.852 63.7975C398.108 63.5146 397.365 63.227 396.616 62.9489C388.725 60.0295 380.662 57.6018 372.471 55.6796L344.999 85.8835L344.472 86.4445L344.825 86.8311H442.601C428.983 77.4406 414.302 69.7008 398.866 63.7739L398.852 63.7975ZM445.466 88.8629H343.461L341.456 90.7015V157.417H359.027H359.055H484.411V125.101C473.071 111.362 459.983 99.1708 445.48 88.8393L445.466 88.8629Z" fill="#2D9CDB"/>
<path opacity="0.1" d="M58.271 123.432V157.417H10.6633C10.6633 157.219 10.6962 157.016 10.7103 156.818C10.7527 156.276 10.795 155.734 10.8421 155.196C10.8939 154.565 10.9503 153.928 11.0115 153.311C11.0727 152.693 11.1386 151.939 11.2091 151.255C11.2797 150.572 11.3456 149.879 11.4256 149.195C11.5056 148.512 11.5762 147.828 11.6609 147.149C11.7456 146.47 11.8209 145.782 11.9103 145.103C11.9809 144.538 12.0562 143.977 12.1315 143.411C12.2397 142.614 12.3526 141.813 12.475 141.021C12.475 140.903 12.5079 140.78 12.5267 140.667C13.3856 134.87 14.5559 129.122 16.0325 123.451L58.271 123.432Z" fill="#2D9CDB"/>
<path opacity="0.1" d="M10.5127 159.435H58.271V224.646H14.0091C13.8914 225.316 13.7785 225.99 13.6561 226.664H58.271V279.256C58.191 279.232 58.1204 279.204 58.0451 279.176C56.784 278.676 55.5323 278.148 54.2805 277.582L53.4806 277.219C52.2257 276.625 50.9709 275.997 49.716 275.333C49.2784 275.102 48.8407 274.862 48.4078 274.617C41.4414 270.707 35.1128 265.754 29.6414 259.927C29.4814 259.772 29.3309 259.607 29.1709 259.456C28.4085 258.626 27.6603 257.787 26.9356 256.929L26.1357 255.986C25.2792 254.935 24.451 253.855 23.6463 252.762C23.5287 252.602 23.4158 252.441 23.2934 252.29C20.0208 247.745 17.3035 242.822 15.1996 237.629C15.1337 237.474 15.0772 237.304 15.0161 237.158C14.3698 235.492 13.7973 233.811 13.2985 232.114C13.082 231.402 12.875 230.699 12.6962 229.959C12.6303 229.742 12.5738 229.53 12.522 229.318C9.8492 218.867 9.53392 208.01 9.53392 197.228C9.53392 195.97 9.53392 194.706 9.53392 193.457C9.53392 189.096 9.58568 184.707 9.66097 180.323C9.66097 179.187 9.70803 178.056 9.73156 176.915C9.79744 174.02 9.89155 171.126 10.0139 168.231C10.0421 167.425 10.0798 166.624 10.1221 165.822C10.1221 165.36 10.1457 164.898 10.1927 164.436C10.3057 162.758 10.3998 161.094 10.5127 159.435Z" fill="#2D9CDB"/>
<path opacity="0.1" d="M105.582 98.6589V157.417H69.6729V98.6589H74.7927V78.7649H95.8085V98.6589H105.582Z" fill="#2D9CDB"/>
<path opacity="0.1" d="M105.582 159.43H69.6776V224.642H105.582V159.43Z" fill="#2D9CDB"/>
<path opacity="0.1" d="M69.6729 226.664H105.582V280.877C101.346 282.097 97.0299 283.015 92.665 283.626L91.5921 283.758C91.0651 283.819 90.5427 283.871 90.0251 283.923C89.5075 283.974 88.971 284.012 88.4487 284.045H88.284C88.0581 284.045 87.8134 284.073 87.5923 284.078H87.3523C87.0699 284.078 86.7876 284.106 86.5052 284.116C86.1053 284.139 85.7053 284.144 85.2959 284.149C85.1218 284.149 84.9571 284.149 84.783 284.149C84.3783 284.149 83.9783 284.149 83.5736 284.149H82.6842C82.4442 284.149 82.2136 284.149 81.9642 284.149L81.056 284.116C80.5855 284.116 80.0772 284.064 79.5878 284.031L78.6843 283.965L77.5597 283.861C76.7691 283.791 75.9833 283.701 75.2068 283.593L74.2657 283.461L73.7951 283.395C73.0093 283.272 72.2328 283.14 71.4423 282.989C70.8635 282.89 70.2894 282.768 69.7058 282.65L69.6729 226.664Z" fill="#2D9CDB"/>
<path opacity="0.1" d="M330.049 91.7197H300.441V157.412H330.049V91.7197Z" fill="#2D9CDB"/>
<path opacity="0.1" d="M330.054 159.43V224.646H183.09V196.517H261.369V213.111H300.441V159.43H330.054Z" fill="#2D9CDB"/>
<path opacity="0.1" d="M330.52 296.585H330.049V339.366C324.748 338.917 319.462 338.306 314.191 337.533C290.463 334.052 267.332 327.291 245.459 317.441C239.144 314.593 232.958 311.485 226.9 308.116C216.781 302.5 207.087 296.148 197.894 289.113C195.585 287.34 193.306 285.527 191.057 283.673C189.499 282.386 187.951 281.066 186.384 279.784C185.297 278.902 184.201 278.035 183.09 277.205V226.664H300.05C299.97 226.362 299.89 226.06 299.806 225.763C299.895 226.06 299.98 226.362 300.06 226.664H330.049V296.557C330.209 296.561 330.365 296.576 330.52 296.585Z" fill="#2D9CDB"/>
<path opacity="0.1" d="M407.27 86.8263H387.977V80.8204H396.626V62.9299C397.376 63.2034 398.122 63.4846 398.866 63.7738V80.8204H407.27V86.8263Z" fill="#2D9CDB"/>
<path opacity="0.1" d="M453.753 157.417H359.036C359.036 157.417 359.036 157.417 359.069 157.44L359.027 157.417H341.456V91.7244H346.435V140.281H369.187V111.524H387.981V88.844H407.275V111.543H426.069V140.3H453.753V157.417Z" fill="#2D9CDB"/>
<path opacity="0.1" d="M341.456 159.43V224.646H453.753V159.43H341.456ZM484.237 301.412L484.392 249.792H453.753V226.692H341.456V340.069C350.663 340.456 359.884 340.346 369.079 339.739H369.239C373.631 339.462 378.002 339.06 382.353 338.532H382.452C405.666 335.826 428.364 329.758 449.838 320.519" fill="#2D9CDB"/>
<path opacity="0.1" d="M497.784 226.664H523.981C523.75 239.906 521.096 252.913 515.29 264.924C510.457 274.904 503.742 283.63 495.808 291.253V249.768H497.784V226.664Z" fill="#2D9CDB"/>
<path opacity="0.1" d="M523.995 224.646H497.784V170.145H511.967C519.308 187.329 523.972 206.185 523.995 224.646Z" fill="#2D9CDB"/>
<path opacity="0.1" d="M330.054 109.982H314.191V130.579H330.054V109.982Z" fill="#2D9CDB"/>
<path opacity="0.1" d="M330.054 152.674H314.191V157.417H330.054V152.674Z" fill="#2D9CDB"/>
<path opacity="0.1" d="M330.054 159.43H314.191V173.266H330.054V159.43Z" fill="#2D9CDB"/>
<path opacity="0.1" d="M330.054 195.366H314.191V215.963H330.054V195.366Z" fill="#2D9CDB"/>
<path opacity="0.1" d="M330.054 238.058H314.191V258.654H330.054V238.058Z" fill="#2D9CDB"/>
<path opacity="0.1" d="M330.049 296.557C330.209 296.557 330.365 296.557 330.52 296.585H330.049V301.37H314.191V280.75H330.049V296.557Z" fill="#2D9CDB"/>
<path opacity="0.1" d="M330.049 323.432V339.343C324.748 338.893 319.462 338.282 314.191 337.509V323.432H330.049Z" fill="#2D9CDB"/>
<path opacity="0.1" d="M251.073 223.133H183.09V224.646H251.073V223.133Z" fill="#2D9CDB"/>
<path opacity="0.1" d="M251.073 226.659H183.09V232.458H251.073V226.659Z" fill="#2D9CDB"/>
<path opacity="0.1" d="M251.073 251.465H183.09V260.79H251.073V251.465Z" fill="#2D9CDB"/>
<path opacity="0.1" d="M251.069 279.798V289.123H197.894C195.585 287.356 193.305 285.543 191.052 283.682C189.494 282.395 187.951 281.075 186.379 279.798H251.069Z" fill="#2D9CDB"/>
<path opacity="0.1" d="M251.069 308.125V317.441H245.455C239.146 314.59 232.961 311.48 226.9 308.111L251.069 308.125Z" fill="#2D9CDB"/>
<path opacity="0.1" d="M382.466 165.751H369.083V179.159H382.466V165.751Z" fill="#2D9CDB"/>
<path opacity="0.1" d="M92.698 103.284H79.3149V116.691H92.698V103.284Z" fill="#2D9CDB"/>
<path opacity="0.1" d="M92.698 134.426H79.3149V147.833H92.698V134.426Z" fill="#2D9CDB"/>
<path opacity="0.1" d="M92.698 165.568H79.3149V178.975H92.698V165.568Z" fill="#2D9CDB"/>
<path opacity="0.1" d="M92.698 196.705H79.3149V210.112H92.698V196.705Z" fill="#2D9CDB"/>
<path opacity="0.1" d="M92.698 227.847H79.3149V241.254H92.698V227.847Z" fill="#2D9CDB"/>
<path opacity="0.1" d="M92.698 258.989H79.3149V272.396H92.698V258.989Z" fill="#2D9CDB"/>
<path opacity="0.1" d="M433.556 165.751H420.173V179.159H433.556V165.751Z" fill="#2D9CDB"/>
<path opacity="0.1" d="M382.466 198.822H369.083V212.229H382.466V198.822Z" fill="#2D9CDB"/>
<path opacity="0.1" d="M433.556 198.822H420.173V212.229H433.556V198.822Z" fill="#2D9CDB"/>
<path opacity="0.1" d="M382.466 231.887H369.083V245.294H382.466V231.887Z" fill="#2D9CDB"/>
<path opacity="0.1" d="M433.556 231.887H420.173V245.294H433.556V231.887Z" fill="#2D9CDB"/>
<path opacity="0.1" d="M382.466 264.958H369.083V278.365H382.466V264.958Z" fill="#2D9CDB"/>
<path opacity="0.1" d="M433.556 264.958H420.173V278.365H433.556V264.958Z" fill="#2D9CDB"/>
<path opacity="0.1" d="M382.466 298.028H369.083V311.435H382.466V298.028Z" fill="#2D9CDB"/>
<path opacity="0.1" d="M433.556 298.028H420.173V311.435H433.556V298.028Z" fill="#2D9CDB"/>
<path opacity="0.1" d="M369.083 339.739V331.093H382.462V338.508L369.083 339.739Z" fill="#2D9CDB"/>
<path opacity="0.1" d="M12.4703 140.658V148.328H58.271V140.658H12.4703ZM17.0348 147.847H13.2985V141.129H17.0631L17.0348 147.847ZM21.5947 147.847H17.8301V141.129H21.5947V147.847ZM26.1451 147.847H22.3805V141.129H26.1451V147.847ZM30.7049 147.847H26.945V141.129H30.7096L30.7049 147.847ZM35.26 147.847H31.4955V141.129H35.26V147.847ZM39.8199 147.847H36.0553V141.129H39.8199V147.847ZM44.3797 147.847H40.6151V141.129H44.3797V147.847ZM48.9348 147.847H45.1703V141.129H48.9348V147.847ZM53.49 147.847H49.7254V141.129H53.49V147.847ZM58.0451 147.847H54.2805V141.129H58.0451V147.847Z" fill="#2D9CDB"/>
<path opacity="0.1" d="M12.4703 162.975V170.645H58.271V162.975H12.4703ZM17.0348 170.159H13.2985V163.46H17.0631L17.0348 170.159ZM21.5947 170.159H17.8301V163.46H21.5947V170.159ZM26.1451 170.159H22.3805V163.46H26.1451V170.159ZM30.7049 170.159H26.945V163.46H30.7096L30.7049 170.159ZM35.26 170.159H31.4955V163.46H35.26V170.159ZM39.8199 170.159H36.0553V163.46H39.8199V170.159ZM44.3797 170.159H40.6151V163.46H44.3797V170.159ZM48.9348 170.159H45.1703V163.46H48.9348V170.159ZM53.49 170.159H49.7254V163.46H53.49V170.159ZM58.0451 170.159H54.2805V163.46H58.0451V170.159Z" fill="#2D9CDB"/>
<path opacity="0.1" d="M12.4703 185.302V192.986H58.271V185.302H12.4703ZM17.0348 192.486H13.2985V185.782H17.0631L17.0348 192.486ZM21.5947 192.486H17.8301V185.782H21.5947V192.486ZM26.1451 192.486H22.3805V185.782H26.1451V192.486ZM30.7049 192.486H26.945V185.782H30.7096L30.7049 192.486ZM35.26 192.486H31.4955V185.782H35.26V192.486ZM39.8199 192.486H36.0553V185.782H39.8199V192.486ZM44.3797 192.486H40.6151V185.782H44.3797V192.486ZM48.9348 192.486H45.1703V185.782H48.9348V192.486ZM53.49 192.486H49.7254V185.782H53.49V192.486ZM58.0451 192.486H54.2805V185.782H58.0451V192.486Z" fill="#2D9CDB"/>
<path opacity="0.1" d="M12.4703 207.628V215.289H58.271V207.628H12.4703ZM17.0348 214.812H13.2985V208.104H17.0631L17.0348 214.812ZM21.5947 214.812H17.8301V208.104H21.5947V214.812ZM26.1451 214.812H22.3805V208.104H26.1451V214.812ZM30.7049 214.812H26.945V208.104H30.7096L30.7049 214.812ZM35.26 214.812H31.4955V208.104H35.26V214.812ZM39.8199 214.812H36.0553V208.104H39.8199V214.812ZM44.3797 214.812H40.6151V208.104H44.3797V214.812ZM48.9348 214.812H45.1703V208.104H48.9348V214.812ZM53.49 214.812H49.7254V208.104H53.49V214.812ZM58.0451 214.812H54.2805V208.104H58.0451V214.812Z" fill="#2D9CDB"/>
<path opacity="0.1" d="M12.6679 229.95C12.8514 230.671 13.0585 231.392 13.275 232.104V230.431H17.0395V237.134H15.0255C15.0867 237.29 15.1478 237.459 15.209 237.606H58.271V229.95H12.6679ZM21.6088 237.134H17.8442V230.431H21.6088V237.134ZM26.1592 237.134H22.3946V230.431H26.1592V237.134ZM30.719 237.134H26.945V230.431H30.7096L30.719 237.134ZM35.2742 237.134H31.5096V230.431H35.2742V237.134ZM39.834 237.134H36.0694V230.431H39.834V237.134ZM44.3938 237.134H40.6293V230.431H44.3938V237.134ZM48.949 237.134H45.1844V230.431H48.949V237.134ZM53.5041 237.134H49.7395V230.431H53.5041V237.134ZM58.0592 237.134H54.2946V230.431H58.0592V237.134Z" fill="#2D9CDB"/>
<path opacity="0.1" d="M23.3028 252.276C23.4205 252.427 23.5334 252.597 23.6558 252.748H26.1451V255.967C26.4133 256.288 26.6768 256.608 26.9498 256.91V252.729H30.7143V259.456H29.1897C29.3403 259.611 29.4861 259.776 29.6602 259.927H58.2851V252.276H23.3028ZM35.26 259.456H31.4955V252.757H35.26V259.456ZM39.8199 259.456H36.0553V252.757H39.8199V259.456ZM44.3797 259.456H40.6151V252.757H44.3797V259.456ZM48.9348 259.456H45.1703V252.757H48.9348V259.456ZM53.49 259.456H49.7254V252.757H53.49V259.456ZM58.0451 259.456H54.2805V252.757H58.0451V259.456Z" fill="#2D9CDB"/>
<path opacity="0.1" d="M48.4266 274.598C48.8548 274.843 49.2925 275.069 49.7348 275.314V275.079H53.4994V277.2L54.2994 277.573V275.079H58.0639V279.157C58.1361 279.192 58.2118 279.221 58.2898 279.241V274.598H48.4266Z" fill="#2D9CDB"/>
<path opacity="0.1" d="M359.037 157.417H359.065H359.037ZM330.049 296.552H330.52H330.049ZM299.806 225.759C299.895 226.061 299.97 226.362 300.055 226.659C299.98 226.362 299.9 226.061 299.806 225.759ZM359.037 157.403H359.065H359.037ZM74.8115 86.8123V88.8252H95.832V86.8123H74.8115ZM330.049 296.552H330.52H330.049ZM299.806 225.759C299.895 226.061 299.97 226.362 300.055 226.659C299.98 226.362 299.9 226.061 299.806 225.759ZM359.037 157.403H359.065H359.037ZM330.049 296.538H330.52H330.049ZM299.806 225.759C299.895 226.061 299.97 226.362 300.055 226.659C299.98 226.362 299.9 226.061 299.806 225.759Z" fill="#2D9CDB"/>
<path d="M221.216 178.984C221.216 178.984 219.362 178.725 219.362 176.019C219.362 173.313 218.035 168.26 218.035 168.26C218.035 168.236 216.886 159.458 215.301 158.063C213.715 156.667 211.677 148.474 211.677 148.474C211.677 148.474 211.329 144.029 210.618 143.072C209.908 142.115 208.948 139.772 207.531 136.429C206.115 133.087 200.209 130.772 200.209 130.772C200.209 130.772 189.532 124.568 186.506 122.546C186.231 122.38 185.974 122.185 185.739 121.966C185.212 121.273 182.916 121.259 182.916 121.259C182.676 119.741 182.445 117.997 182.37 116.417C182.37 116.248 182.37 116.078 182.346 115.908C185.72 113.91 188.262 110.76 189.504 107.036C189.56 106.857 189.607 106.668 189.659 106.489C189.861 106.423 190.047 106.314 190.205 106.172C190.363 106.029 190.49 105.854 190.577 105.66C190.85 105.052 190.854 104.34 191.193 103.774C191.589 103.105 192.341 102.746 192.934 102.242C194.431 100.969 194.817 98.824 194.746 96.8723C194.699 95.2931 194.445 93.6997 194.544 92.1299L194.572 91.7339C194.6 91.4982 194.633 91.2624 194.675 91.0362C194.906 89.867 195.41 88.7639 195.692 87.6042C195.974 86.4445 196.002 85.1387 195.344 84.1393C194.379 82.6732 192.37 82.3809 190.605 82.23C188.605 82.0603 186.817 82.2819 185.537 80.6178C184.938 79.748 184.264 78.9325 183.523 78.1805C183.259 77.9354 180.699 76.3703 180.699 76.2665C178.201 75.1073 175.369 74.8897 172.723 75.6537C171.396 76.0403 170.145 76.672 168.799 76.9878C165.895 77.6761 162.554 76.9312 160.088 78.5954C158.714 79.5382 157.891 81.0373 157.119 82.4987C156.492 83.7024 155.855 84.9045 155.209 86.1051C154.169 88.0803 153.11 90.0886 152.672 92.276C152.58 92.752 152.524 93.2342 152.503 93.7185V93.7421C152.503 93.9165 152.503 94.091 152.503 94.2654V94.487C152.503 94.652 152.503 94.8122 152.531 94.9584C152.559 95.1045 152.555 95.1517 152.569 95.2507C152.583 95.3497 152.606 95.5712 152.635 95.7221C152.663 95.8729 152.719 96.1369 152.776 96.3444C152.799 96.4339 152.832 96.5188 152.86 96.6036C152.908 96.7639 152.964 96.9195 153.025 97.0751C153.058 97.1552 153.091 97.2401 153.129 97.3202C153.199 97.4852 153.284 97.6455 153.369 97.7916C153.406 97.8576 153.435 97.9189 153.472 97.9802C153.604 98.1994 153.748 98.4104 153.905 98.6119C154.912 99.8706 156.394 100.672 157.491 101.851C157.491 101.898 157.491 101.945 157.491 101.987C157.491 102.119 157.491 102.247 157.491 102.379C157.549 105.007 158.247 107.581 159.525 109.878C160.803 112.174 162.621 114.123 164.822 115.555C164.822 115.734 164.846 115.918 164.855 116.097C164.947 117.496 164.93 118.901 164.804 120.297C164.612 120.071 164.372 119.891 164.102 119.77C163.831 119.65 163.537 119.591 163.241 119.6C163.039 119.59 162.836 119.607 162.639 119.651L162.597 119.618V119.661C161.561 119.915 160.286 120.995 159.067 124.064C159.067 124.064 155.359 128.25 152.536 128.076C149.712 127.901 142.564 132.432 142.564 132.432C142.564 132.432 135.591 136.967 134.094 141.587C133.258 144.206 132.255 146.77 131.092 149.261L122.471 167.058L120.88 181.177C120.88 181.177 121.76 187.456 121.586 188.413C121.412 189.37 125.205 198.002 125.205 198.002C125.205 198.002 137.736 220.059 142.856 221.191L143.223 220.931C143.442 221.046 143.675 221.133 143.915 221.191L144.969 220.446C145.032 221.276 145.005 222.111 144.889 222.935C144.183 225.113 145.153 239.326 146.385 242.112C147.618 244.899 147.181 281.429 147.181 281.429L147.007 284.653C147.007 284.653 147.007 284.757 147.049 284.936L147.007 285.7L147.134 285.766C147.266 286.789 147.223 287.827 147.007 288.835C146.564 290.249 146.385 294.247 146.385 294.247C146.385 294.247 142.861 316.819 144.531 321.354C146.202 325.889 147.623 330.857 147.623 330.857C147.623 330.857 149.388 336.514 147.708 337.481C146.028 338.447 141.252 340.069 142.235 342.426C143.129 344.604 146.522 350.44 147.025 351.294L146.983 351.741L146.291 359.251C146.403 360.243 146.672 361.21 147.087 362.117C147.844 363.753 149.317 365.45 152.117 365.266C152.588 365.233 153.133 365.177 153.66 365.106C158.785 364.418 165.095 362.127 165.095 362.127C164.768 361.918 164.467 361.67 164.201 361.387C163.949 361.142 163.75 360.849 163.615 360.525C163.48 360.201 163.412 359.852 163.415 359.501C163.491 358.134 160.936 351.619 160.3 350.016C160.201 349.785 160.15 349.653 160.15 349.653C160.15 349.653 165.975 343.553 165.006 338.146C165.006 338.146 158.559 334.374 160.681 332.305C162.804 330.235 166.596 324.291 166.596 324.291C166.596 324.291 166.771 302.063 166.596 298.744C166.415 296.441 166.524 294.123 166.921 291.847C166.992 291.503 167.076 291.168 167.166 290.839C170.101 291.277 173.064 291.503 176.031 291.513C177.114 291.513 178.215 291.513 179.325 291.447C179.325 291.761 179.34 292.1 179.368 292.465C179.612 297.971 180.069 307.626 180.441 311.213C180.968 316.356 183.881 330.216 183.881 330.216C183.881 330.216 178.323 333.79 184.85 342.596C184.85 342.596 184.85 345.787 184.417 346.249C183.955 347.76 183.582 349.296 183.302 350.85C183.029 352.51 182.916 354.188 183.358 355.06C184.417 357.144 190.77 356.974 190.77 356.974L190.925 356.946C192.124 356.822 193.336 356.937 194.491 357.286C195.645 357.635 196.719 358.21 197.649 358.978C200.063 360.92 209.226 360.067 214.185 359.449C216.129 359.204 217.428 358.978 217.428 358.978C217.491 358.757 217.513 358.527 217.493 358.299C217.442 357.078 216.486 354.4 210.011 352.01C210.011 352.01 203.922 347.909 204.007 344.335H203.88H203.174C203.687 344.307 204.016 344.335 204.016 344.335C204.016 344.335 201.631 335.614 202.605 334.907C203.579 334.2 200.661 324.536 200.661 324.536C200.661 324.536 198.991 308.319 198.901 307.183C198.905 306.208 199.052 305.239 199.339 304.307L198.901 295.416C198.901 295.416 198.816 292.46 198.901 291.498C198.887 290.664 198.819 289.831 198.699 289.005C198.656 288.675 198.614 288.331 198.567 287.991C200.849 287.411 202.332 286.874 202.332 286.874L202.068 255.925C204.007 252.154 204.365 243.88 204.355 238.011C204.355 234.24 204.186 231.449 204.186 231.449L206.835 227.117C206.835 227.117 207.447 221.931 206.477 220.795C206.049 220.281 206.242 219.748 206.595 219.31C206.778 219.164 206.972 219.032 207.174 218.914C207.174 218.914 207.146 218.871 207.113 218.81C207.298 218.655 207.494 218.515 207.701 218.391C207.701 218.391 206.76 216.929 207.602 216.312C208.393 216.849 209.098 217.254 209.635 217.584C209.597 217.929 209.56 218.127 209.56 218.127L209.785 217.655C210.303 217.947 210.618 218.127 210.618 218.127C210.618 218.127 214.769 209.844 214.679 208.623C214.59 207.402 217.503 202.259 217.503 202.259C217.503 202.259 217.856 199.557 219.446 198.426C221.037 197.294 220.679 189.096 220.679 189.096C220.679 189.096 221.122 184.825 222.18 183.081C223.239 181.337 221.216 178.984 221.216 178.984ZM141.802 175.35L141.882 177.325C141.411 176.566 141.073 176.019 141.073 176.019L141.802 175.35Z" fill="url(#paint0_linear)"/>
<path d="M210.844 214.548L209.828 218.886C209.828 218.886 201.687 214.723 200.219 209.434C198.751 204.144 202.675 202.136 202.675 202.136L210.261 205.356L210.844 214.548Z" fill="white"/>
<path opacity="0.1" d="M210.844 214.548L209.828 218.886C209.828 218.886 201.687 214.723 200.219 209.434C198.751 204.144 202.675 202.136 202.675 202.136L210.261 205.356L210.844 214.548Z" fill="black"/>
<path d="M165.157 362.155C165.157 362.155 157.627 364.927 152.451 365.276C149.703 365.46 148.258 363.772 147.515 362.146C147.109 361.241 146.847 360.279 146.738 359.294L147.411 351.822L147.769 347.843L158.766 344.981L160.324 349.752L160.47 350.115C161.095 351.708 163.604 358.19 163.528 359.543C163.525 359.89 163.592 360.233 163.725 360.553C163.857 360.873 164.053 361.163 164.3 361.406C164.553 361.691 164.84 361.943 165.157 362.155Z" fill="white"/>
<path d="M216.585 358.355C216.604 358.582 216.582 358.811 216.519 359.029C216.519 359.029 200.416 361.721 197.122 359.029C196.194 358.243 195.111 357.66 193.944 357.317C192.777 356.975 191.552 356.88 190.346 357.04C190.346 357.04 184.116 357.21 183.076 355.154C182.643 354.292 182.756 352.618 183.024 350.968C183.298 349.422 183.662 347.894 184.116 346.391L184.365 346.193L185.848 345L203.202 344.486H203.334C203.249 348.041 209.226 352.118 209.226 352.118C215.574 354.475 216.51 357.139 216.585 358.355Z" fill="white"/>
<path opacity="0.1" d="M216.585 358.355C216.602 358.583 216.578 358.811 216.515 359.03C216.515 359.03 200.416 361.721 197.122 359.03C196.194 358.244 195.112 357.661 193.946 357.318C192.78 356.976 191.556 356.881 190.351 357.04C190.351 357.04 184.116 357.21 183.081 355.154C182.648 354.287 182.756 352.618 183.024 350.968C185.424 351.209 189.212 351.807 190.699 353.236C192.948 355.409 196.76 357.578 199.099 357.747C200.929 357.865 211.88 358.214 216.585 358.355Z" fill="black"/>
<path opacity="0.1" d="M165.157 362.155C165.157 362.155 157.627 364.927 152.451 365.276C149.703 365.46 148.258 363.772 147.52 362.141C149.435 362.787 152.093 363.466 153.491 362.843C155.147 362.108 161.02 361.632 164.314 361.429C164.565 361.704 164.848 361.948 165.157 362.155Z" fill="black"/>
<path d="M176.328 138.772C170.116 136.354 162.126 128.363 164.121 124.629C164.564 123.687 164.828 122.67 164.898 121.631C165.026 120.221 165.045 118.802 164.954 117.388C164.814 115.073 164.536 112.769 164.121 110.487C164.121 110.487 183.513 110.925 182.384 113.787C182.055 114.626 182.003 116.083 182.092 117.714C182.182 119.345 182.417 121.188 182.662 122.748C183.001 124.889 183.339 126.52 183.339 126.52C183.339 126.52 182.154 128.184 181.457 128.274C180.761 128.363 185.24 142.218 176.328 138.772Z" fill="#CF6F80"/>
<path opacity="0.1" d="M160.456 350.115L160.31 350.275C154.512 343.251 147.501 352.005 147.501 352.005L147.397 351.822L147.755 347.843L158.752 344.981L160.31 349.752L160.456 350.115Z" fill="black"/>
<path opacity="0.1" d="M203.339 344.981C203.339 344.981 199.103 344.892 196.845 346.89C194.586 348.889 183.669 347.324 184.139 346.89C184.279 346.675 184.363 346.429 184.384 346.174L185.866 344.981L203.221 344.467C203.287 344.783 203.339 344.981 203.339 344.981Z" fill="black"/>
<path d="M167.669 289.82C167.354 290.601 167.114 291.411 166.954 292.238C166.562 294.504 166.453 296.81 166.629 299.102C166.804 302.402 166.629 324.517 166.629 324.517C166.629 324.517 162.907 330.414 160.832 332.493C158.757 334.572 165.067 338.306 165.067 338.306C166.008 343.68 160.305 349.752 160.305 349.752C154.507 342.728 147.496 351.487 147.496 351.487C147.496 351.487 143.684 344.887 142.734 342.53C141.783 340.173 146.456 338.541 148.098 337.584C149.741 336.627 148.018 330.985 148.018 330.985C148.018 330.985 146.63 326.039 144.983 321.528C143.336 317.016 146.8 294.558 146.8 294.558C146.8 294.558 146.978 290.57 147.407 289.179C147.623 288.175 147.666 287.142 147.534 286.124C147.505 285.78 147.472 285.492 147.449 285.299C147.425 285.106 147.407 285.016 147.407 285.016L147.472 284.903L149.825 280.51C149.825 280.51 168.799 287.053 167.669 289.82Z" fill="#2D9CDB"/>
<path d="M203.339 344.463C203.339 344.463 199.104 344.373 196.845 346.348C194.586 348.324 183.669 346.782 184.139 346.348C184.61 345.915 184.572 342.704 184.572 342.704C178.168 333.945 183.631 330.391 183.631 330.391C183.631 330.391 180.77 316.602 180.252 311.487C179.89 307.913 179.443 298.31 179.203 292.828C179.1 290.471 179.038 288.849 179.038 288.849L184.271 287.793L184.944 287.656L197.565 285.12C197.565 285.12 197.913 287.477 198.148 289.405C198.266 290.229 198.332 291.058 198.346 291.89C198.261 292.833 198.346 295.784 198.346 295.784L198.774 304.632C198.494 305.56 198.35 306.524 198.346 307.494C198.431 308.62 200.073 324.752 200.073 324.752C200.073 324.752 202.929 334.379 201.955 335.072C200.981 335.765 203.339 344.463 203.339 344.463Z" fill="#2D9CDB"/>
<path opacity="0.1" d="M182.384 113.787C182.055 114.626 182.003 116.083 182.092 117.714C179.495 119.281 176.509 120.082 173.477 120.025C170.446 119.968 167.491 119.056 164.954 117.393C164.814 115.076 164.536 112.77 164.121 110.487C164.121 110.487 183.514 110.916 182.384 113.787Z" fill="black"/>
<path d="M189.88 103.368C189.884 105.067 189.617 106.756 189.09 108.37C187.911 111.988 185.493 115.071 182.264 117.076C179.036 119.08 175.203 119.877 171.445 119.325C167.687 118.772 164.244 116.907 161.726 114.058C159.208 111.209 157.776 107.559 157.684 103.755C157.684 103.623 157.684 103.5 157.684 103.368C157.647 101.227 158.037 99.0999 158.829 97.1109C159.622 95.1218 160.802 93.3109 162.301 91.7836C163.8 90.2563 165.587 89.0432 167.559 88.2152C169.53 87.3871 171.647 86.9607 173.784 86.9607C175.922 86.9607 178.039 87.3871 180.01 88.2152C181.982 89.0432 183.769 90.2563 185.268 91.7836C186.767 93.3109 187.947 95.1218 188.739 97.1109C189.532 99.0999 189.922 101.227 189.885 103.368H189.88Z" fill="#CF6F80"/>
<path opacity="0.1" d="M176.328 138.772C170.116 136.354 162.126 128.363 164.121 124.63C164.564 123.687 164.828 122.671 164.898 121.631L173.401 128.632L178.662 132.955L182.662 122.753C183.001 124.894 183.339 126.525 183.339 126.525C183.339 126.525 182.154 128.189 181.457 128.278C180.761 128.368 185.24 142.218 176.328 138.772Z" fill="black"/>
<path d="M198.318 169.712L191.217 289.217L181.956 289.825L157.976 220.531L161.91 138.263L162.738 120.882L173.401 129.655L178.667 133.978L182.784 123.479L190.44 130.164L198.318 169.712Z" fill="#2D9CDB"/>
<path opacity="0.1" d="M167.669 289.82C167.354 290.601 167.114 291.411 166.954 292.239C160.215 291.196 153.671 289.148 147.538 286.162L147.411 286.096L147.454 285.337L147.477 284.941L149.83 280.547C149.83 280.547 168.799 287.053 167.669 289.82Z" fill="black"/>
<path opacity="0.1" d="M184.379 292.257C182.657 292.551 180.919 292.749 179.175 292.851C179.071 290.494 179.01 288.873 179.01 288.873L184.243 287.817L184.379 292.257Z" fill="black"/>
<path opacity="0.1" d="M198.12 289.429C194.774 290.301 189.607 291.281 184.982 290.669L184.916 287.68L197.537 285.144C197.537 285.144 197.885 287.477 198.12 289.429Z" fill="black"/>
<path opacity="0.1" d="M184.897 291.215C165.604 294.515 147.934 285.054 147.934 285.054L148.103 281.848C148.103 281.848 148.541 245.506 147.327 242.72C146.113 239.934 145.167 225.806 145.854 223.637C146.541 221.469 143.346 188.95 143.346 188.95L142.828 175.75L123.883 168.061L132.353 150.374C133.497 147.894 134.481 145.343 135.299 142.737C136.772 138.145 143.609 133.634 143.609 133.634C143.609 133.634 150.621 129.127 153.392 129.297C156.164 129.466 159.797 125.308 159.797 125.308C162.479 118.459 164.907 121.561 164.907 121.561C164.907 121.886 164.907 121.561 164.775 122.574C163.834 130.093 179.994 153.853 180.224 154.272L181.763 191.826L183.321 239.35L184.897 291.215Z" fill="black"/>
<path d="M184.379 291.215C165.086 294.515 147.411 285.054 147.411 285.054L147.585 281.848C147.585 281.848 148.023 245.506 146.804 242.72C145.585 239.934 144.644 225.806 145.336 223.637C146.028 221.469 142.828 188.95 142.828 188.95L142.306 175.75L123.351 168.033L131.821 150.345C132.963 147.864 133.947 145.314 134.767 142.708C136.235 138.117 143.077 133.605 143.077 133.605C143.077 133.605 150.089 129.098 152.856 129.268C155.623 129.438 159.26 125.28 159.26 125.28C161.947 118.43 164.907 121.532 164.907 121.532C164.907 121.857 164.625 122.004 164.775 122.546C166.846 129.839 179.476 153.825 179.707 154.244L181.264 191.797L182.822 239.321L184.379 291.215Z" fill="white"/>
<path opacity="0.1" d="M179.18 155.314C177.104 154.447 166.112 141.874 166.112 141.874V139.013C165.712 138.07 163.335 138.645 161.406 139.305L162.234 121.924L163.175 122.706C165.237 129.994 178.94 154.895 179.18 155.314Z" fill="black"/>
<path d="M179.702 154.273C177.622 153.405 166.629 140.832 166.629 140.832V137.971C166.229 137.028 163.853 137.603 161.924 138.263L162.757 120.882L163.698 121.664C165.764 128.953 179.471 153.858 179.702 154.273Z" fill="white"/>
<path opacity="0.1" d="M147.934 216.976C148.192 216.976 161.35 215.59 161.35 215.59C161.35 215.59 169.316 231.284 168.794 235.102C168.272 238.921 167.326 242.301 164.121 241.702C160.917 241.104 146.875 242.174 146.875 242.174L147.934 216.976Z" fill="black"/>
<path d="M147.411 215.934C147.67 215.934 160.827 214.548 160.827 214.548C160.827 214.548 168.789 230.247 168.272 234.06C167.754 237.874 166.799 241.259 163.599 240.66C160.399 240.062 146.352 241.132 146.352 241.132L147.411 215.934Z" fill="white"/>
<path d="M157.326 208.566C157.326 208.566 169.401 215.067 169.66 217.052C169.919 219.036 163.514 216.184 162.131 215.84C161.22 215.62 160.293 215.475 159.359 215.406L150.131 215.656L157.326 208.566Z" fill="#CF6F80"/>
<path opacity="0.1" d="M175.81 156.125C176.512 156.125 177.081 155.555 177.081 154.852C177.081 154.149 176.512 153.58 175.81 153.58C175.109 153.58 174.54 154.149 174.54 154.852C174.54 155.555 175.109 156.125 175.81 156.125Z" fill="black"/>
<path d="M175.81 155.607C176.512 155.607 177.081 155.037 177.081 154.334C177.081 153.631 176.512 153.061 175.81 153.061C175.109 153.061 174.54 153.631 174.54 154.334C174.54 155.037 175.109 155.607 175.81 155.607Z" fill="#3F3D56"/>
<path opacity="0.1" d="M178.149 211.225C178.851 211.225 179.42 210.655 179.42 209.952C179.42 209.249 178.851 208.679 178.149 208.679C177.447 208.679 176.878 209.249 176.878 209.952C176.878 210.655 177.447 211.225 178.149 211.225Z" fill="black"/>
<path d="M178.149 210.702C178.851 210.702 179.42 210.132 179.42 209.429C179.42 208.726 178.851 208.156 178.149 208.156C177.447 208.156 176.878 208.726 176.878 209.429C176.878 210.132 177.447 210.702 178.149 210.702Z" fill="#3F3D56"/>
<path opacity="0.1" d="M177.076 183.675C177.778 183.675 178.347 183.105 178.347 182.402C178.347 181.699 177.778 181.129 177.076 181.129C176.374 181.129 175.806 181.699 175.806 182.402C175.806 183.105 176.374 183.675 177.076 183.675Z" fill="black"/>
<path d="M177.076 183.157C177.778 183.157 178.347 182.587 178.347 181.884C178.347 181.181 177.778 180.611 177.076 180.611C176.374 180.611 175.806 181.181 175.806 181.884C175.806 182.587 176.374 183.157 177.076 183.157Z" fill="#3F3D56"/>
<path d="M206.364 215.142C206.364 215.142 207.23 216.444 206.364 217.052C205.499 217.66 206.449 219.131 206.449 219.131C206.449 219.131 204.289 220.399 205.24 221.54C206.19 222.68 205.588 227.833 205.588 227.833L202.99 232.142C202.99 232.142 203.146 234.919 203.155 238.671C203.155 244.526 202.812 252.757 200.911 256.51L201.174 287.298C201.174 287.298 192.078 290.626 184.464 289.613L183.335 240.208C183.335 240.208 184.982 212.191 185.589 206.817C185.944 204.027 186.089 201.214 186.022 198.402C186.022 198.402 185.763 189.992 184.892 186.089C184.892 186.089 183.951 169.179 183.857 164.498C183.815 162.258 183.932 155.725 184.064 149.511C184.21 142.718 184.375 136.311 184.375 136.311L182.657 122.697C182.657 122.697 184.375 122.522 184.892 123.215C185.124 123.432 185.376 123.627 185.645 123.795C188.61 125.803 199.085 131.979 199.085 131.979C199.085 131.979 204.882 134.289 206.27 137.598C207.659 140.908 208.623 143.255 209.296 144.198C209.969 145.141 210.336 149.573 210.336 149.573C210.336 149.573 212.331 157.728 213.889 159.109C215.446 160.491 216.585 169.278 216.585 169.278L202.821 180.121C202.821 180.121 201.612 198.157 201.353 198.855C201.094 199.553 206.364 215.142 206.364 215.142Z" fill="white"/>
<path d="M206.887 215.142C206.887 215.142 207.748 216.444 206.887 217.052C206.026 217.66 206.967 219.131 206.967 219.131C206.967 219.131 204.821 220.413 205.762 221.554C206.703 222.695 206.11 227.847 206.11 227.847L203.513 232.156C203.513 232.156 203.668 234.933 203.682 238.685C203.682 244.54 203.339 252.771 201.438 256.524L201.696 287.312C201.696 287.312 192.586 290.64 184.982 289.627L183.857 240.222C183.857 240.222 185.504 212.205 186.111 206.831C186.467 204.041 186.61 201.228 186.539 198.416C186.539 198.416 186.28 190.006 185.415 186.103C185.415 186.103 184.473 169.193 184.375 164.512C184.332 162.273 184.455 155.739 184.582 149.525C184.728 142.732 184.892 136.326 184.892 136.326L182.624 122.527C182.624 122.527 184.892 122.527 185.415 123.23C185.644 123.449 185.897 123.643 186.168 123.809C189.132 125.818 199.612 131.993 199.612 131.993C199.612 131.993 205.404 134.303 206.793 137.613C208.181 140.922 209.146 143.27 209.823 144.212C210.501 145.155 210.858 149.587 210.858 149.587C210.858 149.587 212.854 157.742 214.411 159.124C215.969 160.505 217.093 169.273 217.093 169.273L203.329 180.116C203.329 180.116 202.12 198.152 201.856 198.85C201.593 199.548 206.887 215.142 206.887 215.142Z" fill="white"/>
<path opacity="0.1" d="M190.403 140.328L191.645 143.958L185.104 150.558C185.25 143.769 185.415 137.358 185.415 137.358L183.146 123.559C183.146 123.559 185.415 123.559 185.937 124.262C186.166 124.481 186.418 124.674 186.69 124.837L192.252 140.912L190.403 140.328Z" fill="black"/>
<path d="M189.88 139.286L191.127 142.916L184.586 149.516C184.732 142.723 184.897 136.316 184.897 136.316L182.624 122.518C182.624 122.518 184.897 122.518 185.415 123.22C185.645 123.438 185.898 123.632 186.168 123.8L191.734 139.871L189.88 139.286Z" fill="white"/>
<path opacity="0.1" d="M189.88 103.368C189.884 105.067 189.617 106.756 189.09 108.37C189.001 108.384 188.91 108.38 188.823 108.358C188.735 108.336 188.653 108.297 188.582 108.243C188.459 104 186.375 100.017 183.81 96.6272C183.09 95.6038 182.217 94.6975 181.222 93.9401C180.216 93.183 178.964 92.8284 177.711 92.9454C176.3 93.1386 175.053 94.1003 173.627 94.2229C171.745 94.3785 170.06 93.0726 168.192 93.0066C167.432 93.0139 166.683 93.1833 165.994 93.5036C165.305 93.8239 164.692 94.2877 164.197 94.864C163.215 96.0272 162.486 97.3822 162.055 98.8428C161.316 101.058 160.913 103.372 160.86 105.707C160.837 107.027 160.71 108.681 159.486 109.162C159.578 108.191 159.468 107.212 159.163 106.286C158.857 105.36 158.363 104.508 157.712 103.783L157.684 103.755C157.684 103.623 157.684 103.5 157.684 103.368C157.647 101.227 158.037 99.0999 158.829 97.1109C159.622 95.1218 160.802 93.3109 162.301 91.7836C163.8 90.2563 165.587 89.0432 167.559 88.2152C169.53 87.3871 171.647 86.9607 173.784 86.9607C175.922 86.9607 178.039 87.3871 180.01 88.2152C181.982 89.0432 183.769 90.2563 185.268 91.7836C186.767 93.3109 187.947 95.1218 188.739 97.1109C189.532 99.0999 189.922 101.227 189.885 103.368H189.88Z" fill="black"/>
<path d="M180.45 77.7561C178.005 76.6038 175.224 76.3859 172.629 77.1433C171.326 77.5298 170.098 78.1568 168.775 78.4727C165.952 79.1562 162.658 78.4161 160.234 80.0708C158.889 81.0136 158.079 82.5033 157.326 83.9506L155.444 87.5428C154.418 89.5086 153.383 91.5075 152.955 93.6713C152.526 95.8351 152.785 98.2582 154.155 99.9978C155.152 101.266 156.625 102.063 157.707 103.255C158.356 103.981 158.848 104.833 159.152 105.757C159.457 106.682 159.567 107.66 159.477 108.629C160.705 108.158 160.823 106.499 160.851 105.179C160.903 102.844 161.306 100.53 162.046 98.3148C162.476 96.8537 163.205 95.4985 164.187 94.336C164.683 93.7601 165.296 93.2966 165.985 92.9764C166.674 92.6561 167.423 92.4864 168.182 92.4786C170.065 92.5446 171.754 93.8457 173.617 93.6901C175.029 93.5723 176.281 92.6059 177.702 92.4173C178.955 92.2985 180.207 92.6533 181.212 93.412C182.207 94.1682 183.079 95.0748 183.796 96.0991C186.365 99.4886 188.45 103.463 188.572 107.715C189.104 108.106 189.871 107.597 190.134 106.994C190.398 106.39 190.407 105.683 190.741 105.108C191.127 104.443 191.866 104.09 192.445 103.59C193.913 102.322 194.28 100.186 194.224 98.2488C194.167 96.3112 193.791 94.3454 194.158 92.4409C194.379 91.2718 194.878 90.1781 195.151 89.0231C195.424 87.8681 195.457 86.5717 194.812 85.577C193.871 84.1156 191.89 83.828 190.163 83.6913C188.2 83.5216 186.445 83.7384 185.193 82.0838C184.606 81.2203 183.945 80.4095 183.217 79.6607C182.968 79.4155 180.45 77.8598 180.45 77.7561Z" fill="#512E4E"/>
<path opacity="0.1" d="M129.304 177.169L124.386 168.062L122.829 182.115C122.829 182.115 123.694 188.356 123.52 189.313C123.346 190.27 127.068 198.85 127.068 198.85C127.068 198.85 139.365 220.79 144.386 221.921L161.35 209.778L156.851 204.055C156.851 204.055 155.293 203.446 154.903 204.055C154.903 204.055 146.55 189.657 145.684 188.615C144.818 187.574 144.988 185.495 144.988 185.495C144.988 185.495 143.689 184.109 144.122 182.808C144.555 181.506 141.614 176.995 141.614 176.995L144.296 174.482L129.304 177.169Z" fill="black"/>
<path d="M124.645 167.024L123.346 168.062L121.789 182.115C121.789 182.115 122.655 188.356 122.48 189.313C122.306 190.27 126.033 198.85 126.033 198.85C126.033 198.85 138.325 220.79 143.346 221.921L160.314 209.778L155.811 204.055C155.811 204.055 154.253 203.446 153.863 204.055C153.863 204.055 145.51 189.657 144.644 188.616C143.778 187.574 143.953 185.495 143.953 185.495C143.953 185.495 142.654 184.109 143.087 182.808C143.52 181.506 140.574 176.995 140.574 176.995L143.256 174.482L124.645 167.024Z" fill="white"/>
<path opacity="0.1" d="M205.24 222.077C206.181 223.222 205.588 228.366 205.588 228.366L202.99 232.674C202.99 232.674 203.146 235.456 203.155 239.204L198.788 240.571C198.394 240.694 197.975 240.721 197.568 240.65C197.161 240.578 196.776 240.41 196.447 240.16C196.118 239.909 195.853 239.584 195.675 239.21C195.497 238.836 195.411 238.425 195.424 238.011L196.177 213.681L206.364 217.584C205.499 218.188 206.449 219.668 206.449 219.668C206.449 219.668 204.289 220.931 205.24 222.077Z" fill="black"/>
<path d="M205.762 221.554C206.703 222.699 206.11 227.847 206.11 227.847L203.513 232.156C203.513 232.156 203.668 234.933 203.682 238.685L199.235 240.076C198.849 240.196 198.439 240.222 198.041 240.152C197.642 240.082 197.266 239.917 196.944 239.672C196.621 239.426 196.362 239.107 196.188 238.741C196.014 238.375 195.929 237.973 195.941 237.568L196.699 213.162L206.891 217.066C206.021 217.669 206.971 219.145 206.971 219.145C206.971 219.145 204.821 220.413 205.762 221.554Z" fill="white"/>
<path d="M209.136 209.957C209.136 209.957 208.444 214.383 206.713 214.643C204.981 214.902 204.205 221.803 202.478 221.558C200.751 221.313 201.894 215.142 201.955 213.945C202.016 212.747 200.073 207.788 201.527 206.661C202.981 205.535 207.583 206.661 207.583 206.661L209.136 209.957Z" fill="#CF6F80"/>
<path opacity="0.1" d="M212.821 175.868L216.086 169.268C216.086 169.268 217.385 174.298 217.385 176.985C217.385 179.673 219.202 179.937 219.202 179.937C219.202 179.937 221.192 182.294 220.143 184.01C219.093 185.726 218.67 189.997 218.67 189.997C218.67 189.997 219.013 198.148 217.456 199.274C215.898 200.401 215.574 203.093 215.574 203.093C215.574 203.093 212.712 208.208 212.802 209.424C212.891 210.64 208.821 218.876 208.821 218.876C208.821 218.876 210.811 208.641 199.212 204.219C199.212 204.219 199.122 200.745 199.988 199.793C200.854 198.841 202.205 198.407 201.358 193.594C200.511 188.78 201.113 183.029 201.113 181.874C201.113 180.719 203.71 173.516 203.71 173.516L212.821 175.868Z" fill="black"/>
<path d="M214.232 168.325L217.084 169.268C217.084 169.268 218.388 174.298 218.388 176.985C218.388 179.673 220.204 179.937 220.204 179.937C220.204 179.937 222.194 182.294 221.145 184.01C220.096 185.726 219.677 189.997 219.677 189.997C219.677 189.997 220.02 198.148 218.463 199.274C216.905 200.401 216.557 203.093 216.557 203.093C216.557 203.093 213.701 208.208 213.79 209.424C213.879 210.64 209.804 218.876 209.804 218.876C209.804 218.876 211.8 208.641 200.195 204.219C200.195 204.219 200.111 200.745 200.976 199.793C201.842 198.841 203.193 198.407 202.346 193.594C201.499 188.78 202.101 183.029 202.101 181.874C202.101 180.719 204.699 173.516 204.699 173.516L214.232 168.325Z" fill="white"/>
<path opacity="0.1" d="M151.246 339.39C151.246 339.39 155.792 336.529 158.776 338.607C161.759 340.686 151.246 339.39 151.246 339.39Z" fill="black"/>
<path opacity="0.1" d="M186.568 330.542C186.568 330.542 190.591 330.023 193.97 333.667C197.348 337.311 186.568 330.542 186.568 330.542Z" fill="black"/>
<g opacity="0.1">
<path opacity="0.1" d="M192.454 102.558C191.876 103.057 191.132 103.416 190.746 104.08C190.417 104.651 190.407 105.353 190.144 105.966C189.88 106.579 189.113 107.078 188.582 106.692C188.459 102.449 186.37 98.4656 183.805 95.0714C183.088 94.0471 182.217 93.1406 181.222 92.3843C180.215 91.6257 178.961 91.271 177.707 91.3896C176.295 91.5829 175.053 92.5446 173.627 92.6624C171.745 92.8227 170.055 91.5169 168.187 91.4509C167.428 91.4585 166.679 91.6285 165.991 91.9497C165.303 92.2708 164.691 92.7357 164.197 93.313C163.214 94.4737 162.485 95.8274 162.055 97.2871C161.316 99.5021 160.913 101.816 160.86 104.151C160.832 105.466 160.71 107.107 159.496 107.597C159.524 107.945 159.524 108.295 159.496 108.644C160.719 108.172 160.841 106.513 160.87 105.193C160.922 102.858 161.325 100.544 162.065 98.3289C162.494 96.8678 163.224 95.5126 164.206 94.3501C164.701 93.7744 165.313 93.3109 166.001 92.9906C166.689 92.6704 167.438 92.5006 168.196 92.4927C170.079 92.5587 171.773 93.8599 173.636 93.7043C175.048 93.5864 176.3 92.62 177.716 92.4314C178.971 92.3129 180.224 92.6676 181.231 93.4261C182.226 94.1824 183.098 95.0889 183.815 96.1133C186.379 99.5028 188.469 103.477 188.591 107.729C189.123 108.12 189.89 107.611 190.153 107.008C190.417 106.404 190.426 105.697 190.756 105.122C191.141 104.457 191.885 104.104 192.464 103.604C193.932 102.336 194.299 100.2 194.243 98.2629C194.243 98.2016 194.243 98.1404 194.243 98.0838C194.153 99.762 193.706 101.473 192.454 102.558Z" fill="black"/>
<path opacity="0.1" d="M157.717 102.223C156.634 101.03 155.157 100.233 154.164 98.9701C153.328 97.8516 152.85 96.5053 152.795 95.1091C152.647 96.8538 153.133 98.5934 154.164 100.007C155.157 101.275 156.634 102.072 157.717 103.265C158.756 104.431 159.38 105.91 159.491 107.47C159.563 106.521 159.443 105.567 159.138 104.665C158.833 103.763 158.35 102.933 157.717 102.223Z" fill="black"/>
<path opacity="0.1" d="M195.16 87.9908C194.883 89.1458 194.388 90.2442 194.163 91.4086C194.029 92.1867 193.98 92.977 194.017 93.7657C194.032 93.3164 194.081 92.8689 194.163 92.4268C194.388 91.2577 194.883 90.164 195.16 89.0091C195.322 88.372 195.374 87.712 195.315 87.0574C195.286 87.3719 195.234 87.6838 195.16 87.9908Z" fill="black"/>
</g>
<path opacity="0.1" d="M66.4589 358.558C91.7825 358.558 112.311 355.255 112.311 351.18C112.311 347.106 91.7825 343.802 66.4589 343.802C41.1353 343.802 20.6065 347.106 20.6065 351.18C20.6065 355.255 41.1353 358.558 66.4589 358.558Z" fill="#2D9CDB"/>
<path d="M67.9365 209.848H64.986V276.399H67.9365V209.848Z" fill="#535461"/>
<path d="M86.477 276.196L86.2935 279.194L86.03 283.437L85.9217 285.2L85.6629 289.443L85.55 291.206L85.2865 295.449L82.3125 343.567C82.1832 345.637 81.2713 347.58 79.7624 349.001C78.2535 350.421 76.261 351.213 74.1904 351.213H58.7274C56.6573 351.212 54.6653 350.421 53.1572 349.001C51.6491 347.58 50.7382 345.637 50.6101 343.567L47.6502 295.416L47.3867 291.173L47.2784 289.41L47.0149 285.167L46.9067 283.404L46.6432 279.161L46.4549 276.163C46.4222 275.586 46.5076 275.008 46.7057 274.466C46.9039 273.923 47.2107 273.426 47.6072 273.006C48.0038 272.587 48.4818 272.252 49.0119 272.024C49.5421 271.796 50.1131 271.679 50.6901 271.68H82.3172C82.8919 271.685 83.4596 271.808 83.9851 272.041C84.5106 272.274 84.9829 272.613 85.3727 273.036C85.7625 273.459 86.0616 273.958 86.2515 274.502C86.4414 275.045 86.5182 275.622 86.477 276.196Z" fill="#3F3D56"/>
<path d="M86.2935 279.194L86.03 283.423H46.8879L46.6243 279.194H86.2935Z" fill="#9D9CB5"/>
<path d="M85.9217 285.186L85.6629 289.419H47.2596L46.9961 285.186H85.9217Z" fill="#9D9CB5"/>
<path d="M85.55 291.187L85.2912 295.416H47.6314L47.3678 291.187H85.55Z" fill="#9D9CB5"/>
<path d="M42.121 234.791C59.3015 247.246 66.473 266.725 66.473 266.725C66.473 266.725 45.7679 266.013 28.5826 253.558C11.3974 241.104 4.23999 221.629 4.23999 221.629C4.23999 221.629 24.9357 222.336 42.121 234.791Z" fill="#2D9CDB"/>
<path d="M4.22588 221.629C4.22588 221.629 25.7216 233.58 32.6154 243.475C39.5093 253.37 66.473 266.725 66.473 266.725" stroke="#535461" stroke-width="2" stroke-miterlimit="10"/>
<path d="M53.2123 209.702C62.5626 216.477 66.473 227.079 66.473 227.079C66.473 227.079 55.2028 226.692 45.8479 219.918C36.4929 213.144 32.5919 202.537 32.5919 202.537C32.5919 202.537 43.8574 202.923 53.2123 209.702Z" fill="#2D9CDB"/>
<path d="M32.5919 202.537C32.5919 202.537 44.2903 209.042 48.0408 214.426C51.7912 219.809 66.473 227.079 66.473 227.079" stroke="#535461" stroke-width="2" stroke-miterlimit="10"/>
<path d="M80.049 226.541C69.3059 238.369 67.033 253.827 67.033 253.827C67.033 253.827 82.1807 250.103 92.9144 238.27C103.648 226.438 105.93 210.984 105.93 210.984C105.93 210.984 90.7922 214.713 80.049 226.541Z" fill="#2D9CDB"/>
<path d="M105.94 210.989C105.94 210.989 91.9451 223.114 88.3875 231.468C84.83 239.821 67.033 253.827 67.033 253.827" stroke="#535461" stroke-width="2" stroke-miterlimit="10"/>
<path d="M474.416 222.379C474.416 222.379 466.647 183.656 469.621 178.838C469.621 178.838 469.729 174.36 469.55 168.651C469.55 168.434 469.55 168.217 469.55 167.996C470.073 168.345 470.619 168.66 471.183 168.938C473.923 170.349 477.069 170.756 480.077 170.089L477.724 167.463C477.159 166.836 476.571 166.157 476.449 165.327C476.326 164.498 476.665 163.757 476.957 163.017C479.192 157.36 479.31 150.247 475.004 145.928C471.367 142.298 470.482 137.612 466.534 134.298C463.649 131.871 462.063 128.311 460.567 124.87C459.301 121.961 458.026 119.029 457.301 115.946C456.737 113.537 456.511 111.043 455.734 108.691C454.958 106.338 453.504 104.052 451.231 103.001C450.421 102.628 449.523 102.416 448.784 101.921C447.815 101.266 447.231 100.2 446.53 99.2671C442.968 94.5529 431.039 97.3295 425.392 99.2435C423.857 99.7255 422.435 100.515 421.213 101.563L421.265 101.478C421.307 101.407 421.359 101.337 421.406 101.266C420.788 101.767 420.254 102.363 419.825 103.034C419.001 104.34 418.658 105.862 417.971 107.277C417.143 108.95 412.536 113.622 414.517 115.503C414.656 115.629 414.815 115.731 414.987 115.805C415.731 116.115 416.55 116.197 417.34 116.04L417.256 116.243C416.579 117.902 416.232 119.678 416.234 121.471C416.234 129.216 422.611 135.496 430.483 135.496C431.963 135.497 433.435 135.27 434.846 134.822C434.879 135.001 434.907 135.18 434.94 135.359C434.94 135.43 434.963 135.5 434.973 135.571L434.723 135.92C434.711 135.899 434.697 135.878 434.681 135.859L427.293 146.202C426.164 146.998 419.66 151.713 419.293 155.248C418.907 159.119 418.521 163.649 418.521 163.649L418.47 164.62C418.147 164.89 417.769 165.087 417.363 165.197C416.957 165.307 416.532 165.327 416.117 165.257C413.811 164.879 413.811 173.742 413.811 173.742C413.811 173.742 412.277 175.156 411.223 173.931C410.169 172.705 407.383 176.858 407.383 176.858L389.925 177.613L389.525 177.636L388.584 174.718C388.482 174.41 388.264 174.155 387.976 174.007C387.688 173.86 387.353 173.832 387.045 173.931C386.972 173.955 386.901 173.985 386.833 174.02L386.767 174.058L386.645 174.143L386.584 174.199C386.55 174.23 386.519 174.263 386.49 174.298L386.433 174.364L386.405 174.393C386.296 174.543 386.224 174.717 386.195 174.901C386.166 175.084 386.179 175.272 386.236 175.449L387.045 177.952C383.676 178.631 380.231 180.545 383.04 185.815L368.801 183.18L373.408 187.055L397.19 191.972C396.875 192.538 397.082 193.358 398.066 194.513C402.301 199.496 410.018 200.849 413.124 201.198C413.944 203.036 414.969 204.775 416.178 206.383L415.91 211.347C415.91 211.347 408.047 249.184 406.607 251.102C407.334 250.277 407.999 249.4 408.597 248.477C406.315 256.25 403.124 266.89 402.287 268.484C400.941 271.029 399.694 281.33 401.228 281.99C401.699 282.193 403.044 282.094 404.964 281.947V282.801L404.88 315.135C404.88 315.135 405.265 334.968 404.207 336.859C403.148 338.749 402.866 342.714 402.866 342.714C402.866 342.714 398.63 350.534 395.275 353.679C395.252 353.703 395.227 353.725 395.2 353.745L395.096 353.009C395.096 353.009 391.064 358.11 382.142 357.823C382.142 357.823 376.772 361.321 384.734 361.509C392.697 361.698 402.866 361.226 402.866 361.226C402.866 361.226 409.966 350.384 415.915 351.798V360.015H417.736V351.666C418.58 351.109 419.303 350.386 419.86 349.541C420.418 348.695 420.798 347.746 420.978 346.749C421.134 345.721 421.02 344.671 420.647 343.701C420.274 342.732 419.655 341.876 418.851 341.219C418.49 340.892 418.2 340.494 418 340.049C417.8 339.605 417.694 339.123 417.689 338.636L417.623 338.692C417.623 338.527 417.58 338.358 417.562 338.183C417.039 333.94 416.385 325.186 418.696 318.709C421.863 309.827 422.822 297.457 420.517 290.094C419.773 287.74 419.162 285.346 418.686 282.923C418.63 282.617 418.578 282.325 418.531 282.051C420.107 282.265 421.668 282.58 423.204 282.994C428.545 284.469 440.229 284.743 450.205 284.663C450.229 284.936 450.257 285.224 450.29 285.511C450.468 287.51 450.84 289.487 451.4 291.414C452.652 295.185 453.226 311.812 453.226 311.812C453.226 311.812 454.84 325.483 453.96 331.046C453.49 334.138 453.019 337.245 452.751 340.366V340.427C452.751 340.427 450.106 347.97 448.172 352.067C448.125 352.17 448.073 352.274 448.026 352.373C447.511 352.42 447.003 352.533 446.516 352.708C446.516 352.708 443.923 357.893 441.339 358.751C438.756 359.609 439.612 362.433 445.462 361.396C451.311 360.359 460.143 359.51 460.143 359.51L460.525 354.221L462.322 351.968L461.852 357.243L463.767 356.866L463.513 350.45L466.454 346.763C466.454 346.763 470.007 343.595 464.727 337.363V337.5C464.67 337.41 464.619 337.316 464.557 337.226V337.198C463.682 335.84 462.986 333.309 464.261 328.816C466.567 320.698 467.908 313.33 467.908 313.33C467.908 313.33 473.056 293.591 466.868 284.253H467.141C466.507 282.938 466.059 281.542 465.809 280.104C465.778 279.934 465.75 279.76 465.724 279.581C470.303 279.317 474.797 278.487 478.463 276.696C478.449 276.677 476.242 229.837 474.416 222.379ZM416.286 189.709V189.803L415.345 189.851L416.286 189.709ZM413.058 190.157C412.903 190.191 412.759 190.261 412.635 190.36C412.23 190.933 411.976 191.6 411.896 192.297L410.428 191.967C410.428 191.967 409.397 191.746 407.915 191.496L407.214 190.789C409.143 190.628 411.148 190.393 413.058 190.157Z" fill="url(#paint1_linear)"/>
<path d="M461.635 350.516L461.075 357.196L462.953 356.818L462.67 349.573L461.635 350.516Z" fill="#1D2366"/>
<path d="M418.799 318.798C416.536 325.257 417.176 333.973 417.684 338.207C417.872 339.772 418.046 340.724 418.046 340.724C418.046 340.724 414.663 348.446 414.38 348.738C414.098 349.031 404.423 354.947 404.423 354.947L397.661 358.902C397.661 358.902 390.8 355.89 394.089 354.853C394.761 354.582 395.367 354.169 395.863 353.641C399.157 350.506 403.294 342.713 403.294 342.713C403.294 342.713 403.576 338.758 404.611 336.877C405.647 334.996 405.27 315.23 405.27 315.23L405.35 283.008V278.808L418.22 278.902C418.301 280.328 418.487 281.746 418.776 283.145C419.237 285.559 419.836 287.945 420.568 290.291C422.837 297.641 421.895 309.95 418.799 318.798Z" fill="#FFB0B1"/>
<path opacity="0.1" d="M418.046 340.724C418.046 340.724 414.663 348.446 414.38 348.738C414.098 349.031 404.423 354.947 404.423 354.947L397.661 358.902C397.661 358.902 390.8 355.89 394.089 354.853C394.761 354.583 395.367 354.169 395.863 353.641L396.155 355.701L398.409 355.607L417.703 338.216C417.872 339.772 418.046 340.724 418.046 340.724Z" fill="black"/>
<path d="M417.811 338.655L398.409 356.163L396.155 356.257L395.685 352.957C395.685 352.957 391.741 358.039 382.979 357.757C382.979 357.757 377.718 361.24 385.516 361.429C393.313 361.617 403.27 361.146 403.27 361.146C403.27 361.146 410.225 350.303 416.046 351.718V359.906H417.834V351.642C418.666 351.082 419.375 350.358 419.92 349.516C420.466 348.673 420.835 347.729 421.006 346.739C421.161 345.72 421.051 344.679 420.688 343.714C420.324 342.75 419.719 341.895 418.931 341.233C418.579 340.902 418.298 340.503 418.105 340.06C417.913 339.616 417.812 339.138 417.811 338.655Z" fill="#1D2366"/>
<path d="M463.423 328.868C462.172 333.346 462.854 335.868 463.71 337.221V337.25C464.809 338.92 465.573 340.789 465.96 342.751L466.035 343.175L457.207 356.069L452.417 357.955C452.417 357.955 444.713 355.319 446.12 354.565C446.473 354.381 447.024 353.401 447.655 352.048C449.537 347.97 452.134 340.446 452.134 340.446V340.385C452.407 337.278 452.84 334.181 453.32 331.098C454.181 325.549 452.6 311.93 452.6 311.93C452.6 311.93 452.036 295.369 450.812 291.602C450.26 289.687 449.893 287.723 449.716 285.738C449.461 283.38 449.405 281.438 449.405 281.438C449.405 281.438 454.478 274.367 463.776 282.004C464.52 282.613 465.174 283.324 465.72 284.116C472.143 293.271 466.971 313.438 466.971 313.438C466.971 313.438 465.677 320.774 463.423 328.868Z" fill="#FFB0B1"/>
<path opacity="0.1" d="M466.049 343.176L457.221 356.069L452.431 357.955C452.431 357.955 444.728 355.319 446.135 354.565C446.488 354.381 447.038 353.401 447.669 352.048C450.93 352.019 452.619 355.131 452.619 355.131L456.751 354.471C456.751 354.471 462.2 343.741 463.423 343.086C464.647 342.431 463.612 338.188 463.612 338.188V337.108C463.645 337.146 463.673 337.189 463.71 337.226V337.255C464.809 338.925 465.573 340.794 465.96 342.756L466.049 343.176Z" fill="black"/>
<path d="M452.901 355.409C452.901 355.409 450.549 351.081 446.04 352.679C446.04 352.679 443.504 357.865 440.968 358.704C438.431 359.543 439.278 362.372 445.01 361.339C450.741 360.307 459.381 359.454 459.381 359.454L459.758 354.179L465.583 346.744C465.583 346.744 469.056 343.59 463.889 337.382V338.461C463.889 338.461 464.925 342.704 463.701 343.359C462.478 344.015 457.047 354.749 457.047 354.749L452.901 355.409Z" fill="#1D2366"/>
<path opacity="0.1" d="M418.234 278.893C418.316 280.319 418.501 281.737 418.79 283.135C413.491 282.358 408.574 282.744 405.35 282.999V278.798L418.234 278.893Z" fill="black"/>
<path opacity="0.1" d="M466.242 285.29C466.242 285.29 458.713 285.657 449.734 285.733C449.48 283.376 449.424 281.434 449.424 281.434C449.424 281.434 454.497 274.362 463.795 281.999C464.539 282.608 465.193 283.319 465.739 284.111C465.884 284.513 466.053 284.907 466.242 285.29Z" fill="black"/>
<path d="M466.242 284.441C466.242 284.441 433.264 286.039 423.213 283.216C413.162 280.392 403.2 282.839 401.699 282.183C400.197 281.528 401.416 271.265 402.734 268.724C404.051 266.183 411.279 240.486 411.279 240.486L418.234 204.158L425.561 202.136L426.079 201.99L438.845 198.464L448.2 195.875C448.2 195.875 466.802 268.63 465.207 273.995C464.627 276.049 464.534 278.21 464.934 280.307C465.178 281.739 465.618 283.13 466.242 284.441Z" fill="#1D2366"/>
<path d="M393.991 179.314C393.991 179.314 387.403 186.386 392.391 190.327C397.379 194.268 400.659 190.704 400.659 190.704L393.991 179.314Z" fill="#C7DAF5"/>
<path opacity="0.1" d="M393.991 179.314C393.991 179.314 387.403 186.386 392.391 190.327C397.379 194.268 400.659 190.704 400.659 190.704L393.991 179.314Z" fill="black"/>
<path d="M447.217 132.823C447.217 132.823 446.445 133.558 445.283 134.643C443.626 136.194 441.175 138.461 439.001 140.361C435.989 142.987 433.504 144.915 434.394 143.27C435.283 141.624 435.114 138.758 434.671 136.076C434.639 135.897 434.61 135.717 434.577 135.543C434.211 133.573 433.725 131.627 433.123 129.716C433.123 129.716 437.989 123.418 440.681 120.934C441.683 119.991 442.384 119.604 442.426 120.26C442.474 121.141 443.132 123.088 443.951 125.153C443.975 125.219 443.998 125.28 444.026 125.346C444.572 126.76 445.189 128.212 445.73 129.466C446.558 131.39 447.217 132.823 447.217 132.823Z" fill="#FFB0B1"/>
<path opacity="0.1" d="M444.026 125.346C443.569 127.81 442.46 130.106 440.814 131.993C439.168 133.881 437.047 135.291 434.671 136.076C434.297 133.924 433.78 131.799 433.123 129.716C433.123 129.716 442.285 117.86 442.426 120.26C442.459 121.169 443.175 123.187 444.026 125.346Z" fill="black"/>
<path opacity="0.1" d="M433.759 139.244L434.944 137.57C434.944 137.57 435.73 142.369 438.62 140.252C441.509 138.136 441.65 156.182 441.65 156.182L438.549 202.631L416.14 201.287L416.776 178.843L419.312 167.529L425.585 151.081L429.316 145.645L433.759 139.244Z" fill="black"/>
<path d="M441.65 156.469L438.827 198.468L438.53 202.918L426.036 202.169L425.566 202.141L416.154 201.575L416.79 179.126L419.326 167.812L425.599 151.364L429.33 145.928L433.773 139.503L434.959 137.834C434.959 137.834 435.744 142.633 438.634 140.516L438.695 140.474C441.518 138.683 441.65 156.469 441.65 156.469Z" fill="#1D2366"/>
<path d="M419.641 163.88C419.641 163.88 418.517 166.237 416.258 165.855C413.999 165.474 414.004 174.341 414.004 174.341C414.004 174.341 412.503 175.755 411.468 174.53C410.432 173.304 407.703 177.448 407.703 177.448L390.602 178.202C390.602 178.202 398.212 181.686 396.72 192.227C396.72 192.227 422.554 190.624 423.401 188.177C424.248 185.73 419.641 163.88 419.641 163.88Z" fill="white"/>
<path opacity="0.03" d="M419.641 163.88C419.641 163.88 418.517 166.237 416.258 165.855C413.999 165.474 414.004 174.341 414.004 174.341C414.004 174.341 412.503 175.755 411.468 174.53C410.432 173.304 407.703 177.448 407.703 177.448L390.602 178.202C390.602 178.202 398.212 181.686 396.72 192.227C396.72 192.227 422.554 190.624 423.401 188.177C424.248 185.73 419.641 163.88 419.641 163.88Z" fill="black"/>
<path d="M369.944 183.741L374.452 187.597L411.562 195.409L406.96 190.704L369.944 183.741Z" fill="white"/>
<path d="M433.829 140.729C433.213 141.671 431.448 146.499 429.975 150.713C428.747 154.225 427.721 157.313 427.721 157.313C427.721 157.313 425.326 172.936 424.102 175.76C422.879 178.584 423.542 189.596 423.542 189.596L418.983 216.792C418.983 216.792 416.917 230.817 413.726 239.194C410.578 247.439 407.072 251.305 406.964 251.428C408.376 249.514 416.07 211.828 416.07 211.828L418.611 164.3C418.611 164.3 418.983 159.783 419.359 155.922C419.735 152.062 427.359 146.791 427.359 146.791L434.709 136.321C435.448 137.311 434.954 139.036 433.829 140.729Z" fill="white"/>
<path d="M414.663 201.811C414.663 201.811 403.84 201.339 398.597 195.032C393.355 188.724 410.715 192.514 410.715 192.514L415.227 193.551L414.663 201.811Z" fill="#FFB0B1"/>
<path opacity="0.1" d="M465.207 273.999C464.627 276.054 464.534 278.215 464.934 280.312C453.127 281.151 440.497 277.954 440.497 277.954C438.144 280.123 431.947 283.319 431.947 283.319L428.568 241.363C426.408 235.706 425.561 206.068 425.561 206.068C425.561 206.068 425.754 204.517 426.032 202.192C426.032 202.136 426.032 202.075 426.055 202.018C426.898 195.527 428.568 183.34 429.387 181.695C430.516 179.432 425.914 173.412 425.914 173.412L428.008 155.522L428.262 153.363C432.676 151.387 436.06 145.08 436.06 145.08L438.657 140.521C441.481 138.706 441.626 156.493 441.626 156.493L438.803 198.492L448.158 195.904C448.158 195.904 466.802 268.634 465.207 273.999Z" fill="black"/>
<path d="M477.324 276.899C464.454 283.301 441.062 277.37 441.062 277.37C438.709 279.539 432.512 282.735 432.512 282.735L429.128 240.778C426.973 235.121 426.126 205.483 426.126 205.483C426.126 205.483 428.846 183.369 429.975 181.111C430.305 180.451 430.145 179.47 429.754 178.414C427.834 173.388 427.127 167.978 427.693 162.626L428.596 154.937L428.846 152.783C433.264 150.803 436.648 144.495 436.648 144.495L439.001 140.366L443.33 132.757L445.382 129.155L445.73 129.471L448.389 131.885C448.389 131.885 449.518 132.828 451.212 134.242C454.897 137.353 461.263 142.831 464.548 146.183C467.437 149.134 468.35 160.613 468.614 169.254C468.788 174.944 468.684 179.404 468.684 179.404C465.771 184.208 473.39 222.775 473.39 222.775C475.164 230.228 477.324 276.899 477.324 276.899Z" fill="white"/>
<path opacity="0.03" d="M452.619 144.401C452.619 144.401 443.786 161.245 444.812 167.647C445.838 174.049 448.756 181.294 447.349 182.987C446.865 183.628 446.24 184.148 445.523 184.507C444.805 184.867 444.014 185.054 443.212 185.056C441.801 185.151 438.036 187.786 438.036 188.069C438.036 188.352 434.559 188.352 431.448 189.672C428.338 190.992 423.745 191.741 423.745 191.741C423.745 191.741 414.804 191.458 413.971 192.307C413.138 193.155 412.282 198.233 414.065 202.282C415.849 206.332 417.83 209.353 419.326 209.905C420.823 210.457 430.319 207.27 438.022 206.515C445.725 205.761 454.087 199.647 454.087 199.647C454.087 199.647 463.296 196.347 464.91 190.798C466.524 185.25 462.939 154.753 462.939 154.753C462.939 154.753 460.228 140.54 452.619 144.401Z" fill="black"/>
<path opacity="0.03" d="M451.49 142.987C451.49 142.987 442.657 159.835 443.692 166.232C444.728 172.63 447.636 179.88 446.224 181.577C445.742 182.219 445.118 182.74 444.401 183.099C443.684 183.458 442.894 183.646 442.092 183.647C440.681 183.741 436.916 186.376 436.916 186.659C436.916 186.942 433.439 186.942 430.328 188.257C427.218 189.572 422.625 190.327 422.625 190.327C422.625 190.327 413.684 190.044 412.856 190.892C412.028 191.741 411.162 196.823 412.95 200.868C414.738 204.912 416.714 207.939 418.211 208.491C419.707 209.042 429.203 205.855 436.907 205.106C444.61 204.356 452.972 198.232 452.972 198.232C452.972 198.232 462.176 194.932 463.772 189.389C465.367 183.845 461.8 153.339 461.8 153.339C461.8 153.339 459.099 139.13 451.49 142.987Z" fill="black"/>
<path d="M452.341 143.552C452.341 143.552 443.509 160.401 444.544 166.798C445.579 173.195 448.487 180.446 447.08 182.138C446.599 182.782 445.974 183.304 445.256 183.664C444.539 184.024 443.747 184.212 442.944 184.212C441.532 184.307 437.768 186.942 437.768 187.22C437.768 187.498 434.295 187.503 431.18 188.823C428.065 190.143 423.477 190.893 423.477 190.893C423.477 190.893 414.536 190.61 413.703 191.458C412.87 192.307 412.013 197.389 413.797 201.433C415.58 205.478 417.561 208.505 419.058 209.056C420.554 209.608 430.05 206.421 437.754 205.667C445.457 204.913 453.819 198.798 453.819 198.798C453.819 198.798 463.028 195.498 464.642 189.95C466.256 184.401 462.694 153.905 462.694 153.905C462.694 153.905 459.946 139.715 452.341 143.552Z" fill="white"/>
<path opacity="0.1" d="M452.148 188.743C452.148 188.743 445.09 187.329 447.546 189.686C450.003 192.043 449.989 194.108 452.995 194.013C456.002 193.919 452.148 188.743 452.148 188.743Z" fill="black"/>
<path opacity="0.1" d="M464.077 239.458C464.077 239.458 460.887 241.622 466.99 246.61C473.094 251.597 464.077 239.458 464.077 239.458Z" fill="black"/>
<path opacity="0.1" d="M457.988 257.245C457.988 257.528 456.859 267.616 461.085 270.138C465.31 272.66 457.988 257.245 457.988 257.245Z" fill="black"/>
<path d="M390.894 178.178C387.487 178.296 380.128 179.338 383.944 186.471C387.318 192.783 392.988 188.564 396.179 185.363C395.4 182.378 393.509 179.807 390.894 178.178Z" fill="#FFB0B1"/>
<path d="M396.221 185.307L396.363 185.16L396.221 185.307Z" fill="#FFB0B1"/>
<path opacity="0.1" d="M451.212 134.529C447.598 137.004 444.568 139.093 443.975 139.526C442.356 140.729 439.269 147.786 437.278 151.387C435.693 154.287 430.54 155.032 428.596 155.215L428.846 153.061C433.264 151.081 436.648 144.773 436.648 144.773L445.382 129.433L448.389 132.172C448.389 132.172 449.518 133.115 451.212 134.529Z" fill="black"/>
<path d="M451.212 134.246C447.598 136.721 444.568 138.81 443.975 139.248C442.356 140.446 439.269 147.503 437.278 151.104C435.693 154.004 430.54 154.749 428.596 154.932L428.846 152.778C433.264 150.798 436.648 144.49 436.648 144.49L445.382 129.15L448.389 131.88C448.389 131.88 449.518 132.813 451.212 134.246Z" fill="#DCE7FF"/>
<path d="M444.257 122.235C444.259 125.065 443.402 127.828 441.801 130.159C439.909 132.915 437.094 134.901 433.866 135.756C430.638 136.61 427.211 136.277 424.207 134.817C421.204 133.357 418.822 130.867 417.494 127.798C416.166 124.729 415.981 121.285 416.971 118.091C417.961 114.896 420.061 112.163 422.891 110.388C425.72 108.612 429.091 107.912 432.392 108.413C435.693 108.914 438.705 110.584 440.882 113.12C443.059 115.656 444.256 118.89 444.257 122.235Z" fill="#FFB0B1"/>
<path opacity="0.1" d="M468.614 169.259C466.703 168.081 465.146 166.406 464.11 164.413C463.325 162.857 462.802 161.061 461.461 159.958C460.252 158.968 458.638 158.727 457.132 158.284C452.181 156.818 448.031 152.292 447.876 147.126C447.8 144.693 448.558 142.265 448.214 139.856C448.019 138.493 447.478 137.203 446.643 136.109C446.228 135.585 445.773 135.095 445.283 134.642C444.624 134.02 443.932 133.417 443.33 132.757C442.951 132.348 442.619 131.897 442.342 131.413C442.118 131.017 441.937 130.598 441.801 130.164C440.859 127.279 441.716 123.856 440.681 120.938L440.624 120.778C440.234 119.741 439.438 118.704 438.333 118.624C437.227 118.543 436.281 119.463 435.227 119.873C433.02 120.731 430.639 119.269 428.799 117.78C426.959 116.29 424.884 114.588 422.545 114.918C420.997 115.14 419.773 116.196 418.347 116.743C418.025 116.867 417.693 116.964 417.354 117.03C418.561 114.015 420.778 111.516 423.625 109.961C426.471 108.406 429.769 107.892 432.952 108.509C436.136 109.125 439.005 110.833 441.068 113.338C443.131 115.844 444.259 118.991 444.257 122.239C444.259 123.22 444.156 124.198 443.951 125.157C443.975 125.223 443.998 125.285 444.026 125.351C444.572 126.765 445.189 128.217 445.73 129.471L448.389 131.885C448.389 131.885 449.518 132.827 451.212 134.242C454.897 137.353 461.263 142.831 464.548 146.183C467.437 149.143 468.341 160.618 468.614 169.259Z" fill="black"/>
<path d="M418.183 108.13C418.856 106.758 419.19 105.221 419.994 103.92C421.176 102.034 423.237 100.827 425.354 100.097C430.883 98.1875 442.568 95.4155 446.059 100.097C446.746 101.04 447.316 102.086 448.266 102.737C448.991 103.232 449.866 103.444 450.662 103.816C452.887 104.863 454.308 107.145 455.066 109.473C455.824 111.802 456.05 114.301 456.605 116.7C457.315 119.779 458.562 122.697 459.805 125.596C461.268 129.018 462.821 132.568 465.645 134.987C469.498 138.287 470.35 142.958 473.927 146.579C478.162 150.878 478.025 157.973 475.842 163.607C475.555 164.347 475.23 165.12 475.343 165.907C475.456 166.694 476.039 167.411 476.59 168.038L478.905 170.654C473.428 171.979 467.23 169.113 464.68 164.083C463.894 162.527 463.372 160.736 462.026 159.628C460.821 158.638 459.202 158.402 457.701 157.959C452.751 156.488 448.6 151.958 448.445 146.791C448.37 144.363 449.127 141.935 448.784 139.531C448.593 138.159 448.05 136.859 447.208 135.76C445.913 134.067 443.961 132.931 442.907 131.046C441.123 127.892 442.478 123.795 441.194 120.41C440.798 119.373 440.008 118.336 438.902 118.256C437.796 118.176 436.85 119.095 435.791 119.505C433.589 120.363 431.208 118.906 429.368 117.412C427.528 115.918 425.453 114.221 423.11 114.555C421.561 114.772 420.343 115.828 418.917 116.38C417.863 116.785 415.726 117.148 414.804 116.257C412.856 114.461 417.369 109.808 418.183 108.13Z" fill="#591D4B"/>
<path opacity="0.1" d="M465.988 162.527C465.197 160.971 464.68 159.18 463.334 158.077C462.129 157.087 460.511 156.847 459.005 156.403C454.059 154.937 449.909 150.407 449.749 145.24C449.673 142.812 450.431 140.38 450.092 137.976C449.895 136.612 449.352 135.322 448.516 134.228C447.217 132.535 445.264 131.399 444.215 129.514C442.431 126.364 443.786 122.268 442.497 118.878C442.107 117.846 441.311 116.809 440.21 116.724C439.109 116.639 438.154 117.568 437.1 117.978C434.897 118.836 432.512 117.374 430.676 115.885C428.841 114.395 426.756 112.693 424.418 113.023C422.87 113.245 421.646 114.301 420.225 114.848C419.171 115.253 417.03 115.621 416.107 114.73C414.169 112.844 418.682 108.201 419.491 106.532C420.164 105.155 420.498 103.623 421.307 102.322C421.35 102.251 421.397 102.181 421.444 102.11C420.838 102.612 420.316 103.207 419.896 103.873C419.091 105.174 418.757 106.701 418.084 108.083C417.27 109.752 412.757 114.409 414.7 116.281C415.642 117.176 417.759 116.809 418.813 116.403C420.225 115.852 421.458 114.796 423.006 114.579C425.359 114.244 427.429 115.946 429.265 117.436C431.1 118.925 433.5 120.387 435.693 119.529C436.747 119.119 437.669 118.195 438.798 118.28C439.928 118.364 440.681 119.397 441.09 120.434C442.375 123.819 441.019 127.915 442.803 131.069C443.857 132.922 445.81 134.082 447.104 135.783C447.946 136.883 448.489 138.182 448.68 139.555C449.024 141.959 448.266 144.387 448.342 146.815C448.497 152 452.647 156.512 457.598 157.983C459.089 158.426 460.718 158.662 461.922 159.651C463.273 160.759 463.805 162.551 464.576 164.106C467.127 169.136 473.324 172.003 478.802 170.678L477.71 169.443C472.962 169.514 468.157 166.808 465.988 162.527Z" fill="black"/>
<path opacity="0.1" d="M433.547 141.011C432.93 141.954 431.166 146.782 429.693 150.996C428.314 150.459 427.062 147.031 427.062 147.031L434.413 136.556C435.166 137.594 434.671 139.314 433.547 141.011Z" fill="black"/>
<path d="M433.829 140.729C433.213 141.671 431.448 146.499 429.975 150.713C428.596 150.181 427.345 146.749 427.345 146.749L434.695 136.278C435.448 137.311 434.954 139.036 433.829 140.729Z" fill="#DCE7FF"/>
<path d="M391.092 188.889L387.017 176.014C386.968 175.864 386.95 175.705 386.964 175.547C386.977 175.389 387.021 175.236 387.093 175.095C387.166 174.955 387.266 174.83 387.387 174.728C387.507 174.626 387.647 174.549 387.798 174.501C388.101 174.406 388.43 174.435 388.712 174.582C388.994 174.728 389.206 174.981 389.304 175.284L393.379 188.144L392.974 190.836L391.092 188.889Z" fill="#BE8B87"/>
<path opacity="0.1" d="M387.403 174.883C387.707 174.787 388.036 174.815 388.319 174.962C388.602 175.108 388.816 175.361 388.913 175.665L392.988 188.526L392.682 190.544L392.979 190.855L393.384 188.163L389.285 175.302C389.188 174.999 388.975 174.747 388.693 174.601C388.411 174.454 388.082 174.425 387.779 174.52C387.524 174.603 387.304 174.769 387.153 174.991C387.233 174.948 387.317 174.912 387.403 174.883Z" fill="white"/>
<path d="M391.092 188.889L393.379 188.163L393.045 190.369L392.974 190.855L392.306 190.157L391.092 188.889Z" fill="#EFC8C4"/>
<path d="M392.306 190.157C392.346 190.107 392.395 190.065 392.452 190.034C392.485 190.014 392.523 190.002 392.562 190.002C392.602 190.002 392.64 190.014 392.673 190.034C392.705 190.073 392.732 190.116 392.753 190.162C392.784 190.214 392.826 190.258 392.877 190.292C392.927 190.325 392.985 190.347 393.045 190.355L392.974 190.827L392.306 190.157Z" fill="#727A9C"/>
<path d="M386.993 180.587C386.993 180.587 395.167 180.54 393.242 184.024C391.318 187.508 388.311 187.927 388.311 187.927L386.993 180.587Z" fill="#FFB0B1"/>
<path d="M336.157 24.2405H335.804C321.763 24.2405 309.344 31.6842 302.201 42.6683C295.058 31.6842 282.639 24.2405 268.597 24.2405H268.245C257.707 24.3411 247.634 28.604 240.216 36.1027C232.797 43.6015 228.633 53.7302 228.627 64.2877C228.627 77.3979 234.359 96.0002 245.535 111.307C266.828 140.474 302.201 165.992 302.201 165.992C302.201 165.992 337.574 140.479 358.862 111.307C370.043 96.0002 375.77 77.3979 375.77 64.2877C375.764 53.731 371.601 43.603 364.183 36.1044C356.766 28.6057 346.695 24.3423 336.157 24.2405ZM331.108 113.551C329.509 113.545 327.949 113.055 326.633 112.144C325.317 111.234 324.307 109.946 323.734 108.45H315.339C314.786 108.447 314.249 108.271 313.801 107.946C313.353 107.622 313.017 107.165 312.841 106.64L310.262 98.857L302.102 127.42C301.943 127.97 301.611 128.454 301.154 128.798C300.698 129.142 300.142 129.329 299.57 129.33H299.406C298.81 129.301 298.241 129.068 297.796 128.67C297.351 128.272 297.055 127.732 296.959 127.142L288.55 76.4739L282.404 106.456C282.263 107.026 281.936 107.532 281.474 107.893C281.013 108.255 280.444 108.451 279.858 108.45H268.033C267.678 108.465 267.324 108.408 266.993 108.283C266.661 108.157 266.357 107.966 266.101 107.72C265.845 107.474 265.641 107.179 265.502 106.852C265.363 106.525 265.291 106.173 265.291 105.818C265.291 105.462 265.363 105.11 265.502 104.783C265.641 104.456 265.845 104.161 266.101 103.915C266.357 103.669 266.661 103.478 266.993 103.352C267.324 103.227 267.678 103.17 268.033 103.185H277.788L286.493 62.8734C286.636 62.2774 286.981 61.7497 287.47 61.3804C287.958 61.0111 288.559 60.8232 289.17 60.8488C289.782 60.8744 290.365 61.1119 290.821 61.5208C291.277 61.9296 291.577 62.4844 291.67 63.0903L300.258 114.777L307.57 89.2211C307.722 88.6829 308.044 88.2085 308.488 87.8686C308.931 87.5287 309.473 87.3417 310.031 87.3355H310.083C310.636 87.3356 311.175 87.5107 311.623 87.8358C312.071 88.1609 312.405 88.6193 312.577 89.1457L317.24 103.199H323.631C324.085 101.816 324.912 100.586 326.02 99.6439C327.128 98.7021 328.475 98.0854 329.911 97.8618C331.347 97.6381 332.816 97.8163 334.158 98.3767C335.499 98.937 336.66 99.8577 337.512 101.037C338.363 102.217 338.874 103.609 338.986 105.06C339.097 106.512 338.807 107.966 338.146 109.263C337.485 110.559 336.479 111.648 335.24 112.408C334 113.168 332.575 113.57 331.122 113.57L331.108 113.551Z" fill="#2D9CDB"/>
</g>
<defs>
<filter id="filter0_d" x="0" y="0" width="528" height="377" filterUnits="userSpaceOnUse" color-interpolation-filters="sRGB">
<feFlood flood-opacity="0" result="BackgroundImageFix"/>
<feColorMatrix in="SourceAlpha" type="matrix" values="0 0 0 0 0 0 0 0 0 0 0 0 0 0 0 0 0 0 127 0"/>
<feOffset dy="4"/>
<feGaussianBlur stdDeviation="2"/>
<feColorMatrix type="matrix" values="0 0 0 0 0 0 0 0 0 0 0 0 0 0 0 0 0 0 0.25 0"/>
<feBlend mode="normal" in2="BackgroundImageFix" result="effect1_dropShadow"/>
<feBlend mode="normal" in="SourceGraphic" in2="effect1_dropShadow" result="shape"/>
</filter>
<linearGradient id="paint0_linear" x1="171.679" y1="365.29" x2="171.679" y2="75.2058" gradientUnits="userSpaceOnUse">
<stop stop-color="#808080" stop-opacity="0.25"/>
<stop offset="0.54" stop-color="#808080" stop-opacity="0.12"/>
<stop offset="1" stop-color="#808080" stop-opacity="0.1"/>
</linearGradient>
<linearGradient id="paint1_linear" x1="105043" y1="218872" x2="105043" y2="69969.6" gradientUnits="userSpaceOnUse">
<stop stop-color="#808080" stop-opacity="0.25"/>
<stop offset="0.54" stop-color="#808080" stop-opacity="0.12"/>
<stop offset="1" stop-color="#808080" stop-opacity="0.1"/>
</linearGradient>
<clipPath id="clip0">
<rect width="520" height="369" fill="white" transform="translate(4)"/>
</clipPath>
</defs>
</svg>
